<?xml version="1.0" standalone="no"?>
<!DOCTYPE svg PUBLIC "-//W3C//DTD SVG 20010904//EN"
 "http://www.w3.org/TR/2001/REC-SVG-20010904/DTD/svg10.dtd">
<svg version="1.0" xmlns="http://www.w3.org/2000/svg"
 width="500.000000pt" height="500.000000pt" viewBox="0 0 500.000000 500.000000"
 preserveAspectRatio="xMidYMid meet">

<g transform="translate(0.000000,500.000000) scale(0.100000,-0.100000)"
fill="#000000" stroke="none">
<path d="M1899 3482 c-120 -159 -125 -172 -97 -249 11 -30 10 -35 -22 -75 -19
-24 -53 -63 -76 -88 -23 -25 -74 -83 -113 -130 -40 -47 -94 -109 -119 -138
-26 -30 -48 -58 -50 -63 -2 -4 -23 -6 -46 -3 -79 11 -146 -45 -146 -121 0
-114 131 -173 209 -94 31 30 44 77 35 116 -4 14 -2 28 3 32 5 3 92 101 192
216 101 116 191 217 201 226 12 10 48 19 91 23 85 9 96 17 194 131 82 96 78
105 -40 105 l-83 0 -11 33 c-6 17 -13 52 -16 77 -10 75 -15 90 -28 90 -6 0
-42 -39 -78 -88z"/>
<path d="M1285 3323 c-146 -15 -301 -85 -409 -185 -122 -112 -193 -247 -223
-422 -37 -214 44 -452 209 -613 94 -92 160 -134 276 -172 72 -23 217 -37 286
-27 l46 7 0 67 0 67 -102 0 c-130 0 -164 7 -257 52 -110 52 -208 153 -260 265
-48 105 -61 157 -61 253 0 155 56 291 166 402 74 74 112 98 223 140 54 21 84
25 166 26 107 0 155 -10 242 -49 30 -14 58 -24 63 -22 17 6 79 92 73 101 -11
17 -151 77 -215 91 -65 15 -170 24 -223 19z"/>
<path d="M2470 3205 l0 -65 100 0 100 0 0 -290 0 -290 75 0 75 0 0 290 0 290
100 0 100 0 0 65 0 65 -275 0 -275 0 0 -65z"/>
<path d="M3107 3263 c-4 -3 -7 -33 -7 -65 l0 -58 110 0 110 0 2 -292 3 -293
70 0 70 0 3 293 2 292 105 0 105 0 0 65 0 65 -283 0 c-156 0 -287 -3 -290 -7z"/>
<path d="M3792 2913 l3 -358 70 0 c49 0 70 4 71 13 1 6 2 68 3 137 l1 125 135
0 135 0 0 65 0 65 -135 0 -135 0 0 90 0 90 160 0 160 0 0 65 0 65 -235 0 -235
0 2 -357z"/>
<path d="M1856 3001 l-49 -50 29 -48 c27 -45 74 -172 74 -200 0 -17 6 -16 70
7 30 11 57 20 59 20 10 0 -11 96 -36 157 -25 64 -82 162 -93 163 -3 0 -28 -22
-54 -49z"/>
<path d="M1249 3016 c-120 -35 -214 -115 -271 -235 -29 -61 -32 -74 -31 -166
0 -81 4 -110 22 -150 76 -172 212 -265 387 -265 95 0 154 19 154 50 0 54 111
233 186 299 26 22 51 41 57 41 6 0 8 24 5 63 -6 66 -43 168 -62 166 -6 -1 -30
-22 -53 -48 l-42 -47 15 -44 c30 -87 -9 -218 -84 -280 -44 -36 -129 -70 -177
-70 -95 0 -208 77 -253 172 -82 175 57 388 253 388 37 0 75 -4 85 -10 15 -8
26 -1 65 43 l46 52 -53 24 c-64 30 -179 37 -249 17z"/>
<path d="M2075 2676 c-286 -79 -477 -271 -524 -526 -16 -91 -22 -173 -13 -203
l8 -29 14 29 c33 64 95 135 231 265 79 75 152 151 162 168 29 48 31 28 4 -27
-31 -60 -98 -147 -180 -233 -96 -100 -142 -159 -175 -225 -34 -67 -56 -141
-47 -155 11 -17 55 -11 61 8 3 9 15 43 27 76 22 58 22 59 77 73 30 7 93 32
140 55 67 33 102 59 165 123 93 94 136 161 177 282 26 74 31 108 36 215 l5
128 -44 -1 c-24 -1 -80 -11 -124 -23z"/>
<path d="M3132 2412 c-9 -7 -12 -76 -10 -313 l3 -304 60 0 60 0 0 310 0 310
-50 3 c-27 1 -56 -2 -63 -6z"/>
<path d="M3395 2407 c-3 -7 -4 -147 -3 -312 l3 -300 198 2 c109 2 203 5 208 9
5 3 9 24 7 47 l-3 42 -140 5 -140 5 -3 73 -3 72 124 0 c68 0 126 2 128 4 2 2
2 27 1 55 l-4 51 -124 0 -124 0 0 70 0 69 138 3 137 3 3 58 3 57 -201 0 c-152
0 -202 -3 -205 -13z"/>
<path d="M3900 2360 l0 -60 95 0 95 0 0 -255 0 -255 60 0 60 0 0 255 0 254 93
3 92 3 3 58 3 57 -251 0 -250 0 0 -60z"/>
<path d="M2470 2100 l0 -310 120 0 c213 0 320 45 382 162 20 37 23 58 23 153
0 99 -3 116 -26 160 -29 57 -97 113 -158 133 -25 7 -99 12 -191 12 l-150 0 0
-310z m275 199 c53 -15 110 -73 125 -129 41 -151 -52 -270 -212 -270 l-68 0 0
205 0 205 58 0 c31 0 75 -5 97 -11z"/>
</g>
</svg>
