<?xml version="1.0" standalone="no"?>
<!DOCTYPE svg PUBLIC "-//W3C//DTD SVG 20010904//EN"
 "http://www.w3.org/TR/2001/REC-SVG-20010904/DTD/svg10.dtd">
<svg version="1.0" xmlns="http://www.w3.org/2000/svg"
 width="500.000000pt" height="500.000000pt" viewBox="0 0 500.000000 500.000000"
 preserveAspectRatio="xMidYMid meet">

<g transform="translate(0.000000,500.000000) scale(0.100000,-0.100000)"
fill="#000000" stroke="none">
<path d="M3099 3738 c-24 -29 -46 -55 -49 -58 -32 -29 -133 -167 -146 -198
-16 -41 -16 -50 1 -193 7 -50 5 -58 -16 -81 -74 -77 -175 -185 -254 -273 -308
-341 -283 -318 -330 -307 -62 13 -121 -4 -163 -46 -84 -84 -75 -198 21 -275
32 -27 45 -31 100 -31 53 -1 70 4 104 26 57 38 87 105 80 178 l-6 54 62 66
c90 95 161 172 257 280 47 52 106 118 131 145 26 28 62 68 80 89 44 51 83 66
167 66 105 0 137 21 259 170 66 80 102 132 100 145 -2 19 -11 20 -133 23
l-132 3 -6 52 c-3 29 -9 79 -12 112 -11 121 -46 137 -115 53z"/>
<path d="M2190 3439 c-291 -23 -576 -184 -733 -414 -125 -183 -179 -352 -179
-564 0 -168 32 -312 102 -452 99 -201 282 -378 484 -468 147 -66 364 -102 511
-83 l60 7 0 99 0 99 -160 2 c-180 2 -236 14 -350 71 -253 128 -404 344 -446
637 -26 186 31 392 155 555 113 147 251 239 443 294 62 18 104 22 203 22 139
0 231 -20 348 -75 34 -17 66 -29 71 -27 4 2 36 35 70 75 l61 71 -52 30 c-169
95 -376 137 -588 121z"/>
<path d="M2992 3005 l-63 -75 34 -57 c53 -91 97 -218 97 -278 0 -14 3 -25 8
-25 4 0 45 14 92 30 47 16 86 30 88 30 6 0 1 60 -7 86 -5 16 -15 49 -22 74
-25 84 -136 291 -157 290 -4 0 -35 -34 -70 -75z"/>
<path d="M2115 3011 c-196 -56 -344 -204 -410 -409 -26 -81 -23 -224 5 -313
49 -152 178 -302 310 -362 116 -52 263 -71 369 -47 71 17 79 23 108 90 74 168
123 240 257 378 50 51 95 100 100 109 19 35 -31 249 -69 291 -9 10 -18 5 -45
-25 -18 -21 -51 -57 -73 -80 -36 -37 -39 -44 -26 -59 10 -12 14 -46 14 -118 0
-94 -3 -106 -33 -168 -47 -95 -101 -151 -180 -190 -63 -31 -73 -33 -172 -33
-93 0 -111 3 -163 27 -166 78 -263 284 -212 451 32 106 114 201 215 249 55 27
77 32 145 32 44 1 98 -3 120 -7 l40 -8 62 73 61 73 -33 18 c-94 48 -275 61
-390 28z"/>
<path d="M3370 2560 c-434 -93 -730 -358 -821 -735 -20 -84 -27 -309 -10 -319
5 -3 21 13 37 37 96 142 181 235 329 357 48 40 167 161 210 213 21 26 40 45
42 43 5 -5 -51 -108 -88 -163 -45 -64 -58 -80 -180 -209 -191 -203 -303 -371
-328 -493 -14 -64 -4 -81 44 -81 36 0 40 7 69 108 22 76 52 122 81 122 13 0
48 6 77 14 312 81 580 360 663 691 23 95 45 264 45 358 l0 77 -42 -1 c-24 0
-81 -9 -128 -19z"/>
</g>
</svg>
